<?xml version="1.0" standalone="no"?>
<!DOCTYPE svg PUBLIC "-//W3C//DTD SVG 20010904//EN"
 "http://www.w3.org/TR/2001/REC-SVG-20010904/DTD/svg10.dtd">
<svg version="1.0" xmlns="http://www.w3.org/2000/svg"
 width="640.000000pt" height="640.000000pt" viewBox="0 0 640.000000 640.000000"
 preserveAspectRatio="xMidYMid meet">

<g transform="translate(0.000000,640.000000) scale(0.100000,-0.100000)"
fill="#000000" stroke="none">
<path d="M3045 6388 c-138 -10 -232 -20 -320 -34 -16 -2 -41 -6 -55 -8 -14 -2
-32 -6 -40 -9 -8 -3 -22 -6 -30 -6 -8 0 -28 -3 -45 -6 -16 -4 -37 -7 -45 -9
-9 -1 -21 -5 -28 -10 -6 -4 -16 -5 -21 -1 -5 3 -13 0 -16 -6 -4 -5 -13 -8 -21
-5 -7 3 -16 1 -19 -5 -4 -5 -12 -9 -18 -8 -7 1 -19 -1 -27 -4 -8 -4 -24 -8
-35 -10 -11 -2 -33 -9 -48 -16 -16 -6 -33 -9 -38 -5 -5 3 -9 0 -9 -6 0 -7 -7
-10 -15 -7 -8 4 -17 2 -20 -4 -4 -5 -11 -7 -16 -4 -5 4 -9 2 -9 -4 0 -5 -15
-13 -32 -17 -18 -4 -36 -9 -40 -10 -5 -1 -10 -3 -13 -4 -3 -1 -8 -3 -12 -5 -5
-1 -26 -10 -48 -20 -22 -10 -46 -18 -52 -18 -7 0 -13 -4 -13 -9 0 -4 -3 -7 -7
-6 -5 1 -18 -3 -30 -10 -13 -7 -23 -9 -23 -5 0 4 -4 4 -8 -2 -7 -10 -220 -117
-225 -112 -1 1 -9 -4 -17 -11 -8 -7 -71 -47 -140 -90 -410 -254 -766 -611
-1020 -1021 -52 -84 -193 -347 -196 -366 -1 -5 -13 -36 -27 -68 -15 -31 -26
-58 -25 -60 1 -1 -5 -13 -12 -27 -8 -14 -15 -28 -16 -32 -1 -5 -2 -9 -3 -10
-2 -2 -4 -13 -7 -26 -2 -12 -11 -39 -20 -60 -9 -20 -18 -46 -19 -57 -2 -11 -9
-33 -16 -50 -7 -16 -12 -33 -11 -37 1 -4 -3 -20 -10 -35 -6 -15 -10 -33 -9
-40 1 -6 -3 -14 -8 -18 -6 -3 -8 -12 -5 -19 3 -8 1 -17 -5 -20 -6 -4 -8 -13
-5 -20 3 -8 1 -17 -5 -20 -6 -4 -8 -13 -4 -21 3 -9 0 -21 -6 -29 -6 -7 -8 -16
-4 -19 3 -4 1 -13 -6 -20 -6 -8 -9 -22 -5 -30 3 -9 2 -22 -2 -29 -8 -13 -14
-48 -14 -87 0 -12 -3 -28 -8 -35 -4 -6 -8 -24 -9 -41 -2 -16 -5 -52 -7 -80
-24 -258 -24 -395 0 -645 2 -25 5 -61 7 -80 1 -19 5 -40 9 -46 5 -7 8 -23 8
-35 0 -34 6 -71 15 -91 4 -9 4 -22 0 -28 -4 -6 -1 -18 6 -26 6 -8 9 -17 6 -21
-4 -3 -2 -12 4 -19 6 -8 9 -20 6 -29 -4 -8 -2 -17 4 -21 6 -3 8 -12 5 -20 -3
-7 -1 -16 5 -20 6 -3 8 -12 5 -20 -3 -7 -1 -16 5 -19 5 -4 9 -12 8 -18 -1 -7
1 -19 4 -27 4 -8 8 -24 10 -35 2 -11 10 -33 16 -50 7 -16 14 -39 16 -50 1 -11
10 -37 19 -57 9 -21 18 -48 20 -60 3 -13 5 -24 7 -25 1 -2 2 -6 3 -10 1 -5 8
-19 16 -33 7 -14 13 -26 12 -27 -1 -2 10 -29 25 -60 14 -32 26 -62 27 -68 3
-19 144 -282 196 -366 253 -410 611 -768 1019 -1020 69 -44 133 -84 141 -91 8
-7 16 -12 17 -11 5 4 217 -101 224 -110 3 -5 8 -8 10 -7 9 4 59 -13 59 -19 0
-4 6 -8 13 -8 6 0 30 -8 52 -18 22 -10 43 -19 48 -20 4 -2 9 -4 12 -5 3 -1 8
-3 13 -4 4 -1 22 -6 40 -10 17 -4 32 -12 32 -17 0 -5 3 -8 8 -8 4 1 9 1 12 -1
3 -1 16 -3 30 -5 14 -2 39 -9 55 -16 17 -6 39 -14 50 -16 11 -2 27 -6 35 -10
8 -3 20 -7 25 -8 6 -1 12 -3 15 -4 6 -3 39 -11 60 -15 8 -1 22 -5 30 -9 28
-12 294 -58 365 -63 39 -2 131 -8 206 -14 121 -8 298 -2 454 16 22 2 60 6 85
8 25 2 47 5 50 7 3 1 16 4 30 6 57 7 76 11 90 16 8 3 22 6 30 6 24 1 54 8 72
15 9 4 21 5 27 2 5 -4 13 -1 16 5 4 5 13 8 21 5 7 -3 16 -1 20 5 3 6 12 8 20
5 7 -3 16 -1 20 5 3 6 12 8 20 5 7 -3 16 -1 20 5 3 6 12 8 19 5 7 -2 18 1 24
7 6 6 11 7 11 3 0 -5 7 -3 15 4 8 7 15 9 15 5 0 -4 7 -2 15 5 8 6 19 9 25 5 5
-3 10 -1 10 5 0 7 6 10 12 8 7 -3 24 1 37 8 14 7 28 11 33 8 4 -3 8 -1 8 5 0
5 15 13 33 17 42 10 36 8 82 29 22 9 45 18 50 19 6 1 25 10 43 19 17 10 32 14
32 10 0 -5 4 -3 8 2 4 6 66 39 137 75 502 251 940 648 1244 1127 64 101 213
374 217 398 1 6 13 36 27 68 15 31 26 58 25 60 -1 1 5 13 12 27 8 14 15 28 16
33 1 4 2 8 3 10 2 1 4 12 7 25 2 12 11 39 20 60 9 20 18 46 19 57 2 11 9 34
16 50 7 17 12 33 11 37 -1 4 3 20 10 35 6 15 10 33 9 40 -1 6 3 14 8 18 6 3 8
12 5 19 -3 8 -1 17 5 20 6 4 8 13 5 20 -3 8 -1 17 5 20 6 4 8 13 4 21 -3 9 0
21 6 29 6 7 8 16 4 19 -3 4 -1 13 6 20 6 8 9 22 5 30 -3 9 -2 22 2 29 4 6 9
21 10 32 2 12 5 37 8 56 35 240 47 458 35 618 -14 176 -18 219 -24 262 -3 19
-8 53 -11 75 -10 71 -11 80 -19 97 -4 9 -4 22 0 28 4 6 1 18 -6 26 -6 8 -9 17
-6 21 4 3 2 12 -4 19 -6 8 -9 20 -6 29 4 8 2 17 -4 21 -6 3 -8 12 -5 20 3 7 1
16 -5 20 -6 3 -8 12 -5 20 3 7 1 16 -5 19 -5 4 -9 12 -8 18 1 7 -3 25 -9 40
-7 15 -11 31 -10 35 1 4 -4 21 -11 37 -7 17 -14 39 -16 50 -1 11 -10 37 -19
57 -9 21 -18 48 -20 60 -3 13 -5 24 -7 26 -1 1 -2 5 -3 10 -1 4 -7 16 -13 27
-6 11 -12 23 -12 27 -1 4 -13 34 -28 65 -14 32 -26 63 -27 68 -4 24 -153 297
-217 398 -304 480 -742 876 -1244 1127 -71 36 -133 70 -137 75 -4 6 -8 7 -8 3
0 -4 -19 1 -42 12 -24 10 -61 26 -83 36 -22 9 -43 18 -47 19 -5 2 -9 3 -10 4
-2 2 -14 5 -28 7 -13 2 -28 10 -32 17 -4 6 -8 8 -8 3 0 -5 -7 -3 -15 4 -8 7
-15 9 -15 4 0 -4 -5 -3 -11 3 -6 6 -18 9 -25 6 -8 -3 -14 0 -14 7 0 6 -4 9 -9
6 -5 -4 -22 -1 -38 6 -15 6 -31 12 -35 12 -3 1 -9 4 -13 8 -4 4 -13 4 -20 2
-7 -3 -16 -1 -19 5 -4 6 -13 8 -20 5 -8 -3 -17 -1 -20 5 -4 6 -13 8 -20 5 -8
-3 -17 -1 -20 5 -4 6 -13 8 -20 5 -8 -3 -17 -1 -20 5 -4 6 -13 8 -21 5 -8 -3
-20 -2 -27 2 -12 8 -38 13 -68 15 -8 0 -22 3 -30 6 -19 7 -59 13 -89 13 -12 0
-28 3 -34 7 -12 7 -69 14 -117 13 -14 0 -43 5 -65 10 -58 13 -292 18 -420 8z
m126 -2176 l29 -32 0 -530 c0 -389 -3 -536 -12 -555 -25 -55 -22 -55 -597 -55
l-531 0 -32 29 -33 29 -3 519 c-2 358 0 530 8 556 7 25 22 45 43 58 31 19 50
19 565 17 l534 -3 29 -33z m1349 20 c61 -30 61 -34 58 -615 l-3 -519 -33 -29
-32 -29 -541 0 -541 0 -29 29 -29 29 0 536 c0 401 3 542 12 562 24 53 31 53
588 54 471 0 518 -2 550 -18z m-2530 -45 c0 -1 -48 -50 -107 -107 l-108 -105
105 108 c97 99 110 112 110 104z m1155 -1329 c55 -25 55 -22 55 -597 l0 -531
-29 -32 -29 -33 -526 -3 c-579 -3 -580 -3 -611 57 -14 27 -15 92 -13 562 l3
531 33 29 32 29 530 0 c389 0 536 -3 555 -12z m553 0 c7 -7 12 -42 12 -85 l0
-73 74 0 c66 0 77 -3 90 -22 23 -33 21 -113 -4 -138 -16 -16 -33 -20 -90 -20
l-70 0 0 -75 c0 -87 -8 -95 -89 -95 -69 0 -81 15 -81 101 l0 69 -63 0 c-105 0
-107 3 -107 179 0 101 4 151 12 159 8 8 58 12 158 12 100 0 150 -4 158 -12z
m866 -10 c18 -25 21 -84 6 -122 l-10 -26 -165 0 -165 0 0 -74 c0 -66 -3 -77
-22 -90 -28 -20 -108 -21 -134 -2 -17 13 -19 29 -22 151 -3 112 -1 140 12 161
l16 24 235 0 c230 0 234 0 249 -22z m-524 -338 c15 -15 20 -33 20 -72 0 -70
-17 -88 -87 -88 -71 0 -93 21 -93 90 0 37 5 55 20 70 15 15 33 20 70 20 37 0
55 -5 70 -20z m341 10 c16 -9 19 -22 19 -80 0 -80 -9 -90 -85 -90 -76 0 -85
10 -85 90 0 55 4 71 18 79 22 14 108 14 133 1z m-863 -176 c21 -15 22 -21 22
-175 l0 -159 73 0 c43 0 78 -5 85 -12 16 -16 16 -130 0 -146 -7 -7 -42 -12
-85 -12 l-73 0 0 -74 c0 -66 -3 -77 -22 -90 -12 -9 -41 -16 -63 -16 -22 0 -51
7 -63 16 -22 15 -22 16 -22 334 0 318 0 319 22 334 12 9 41 16 63 16 22 0 51
-7 63 -16z m1036 3 c27 -20 34 -108 12 -142 -14 -22 -24 -25 -72 -25 -84 0
-94 9 -94 85 0 44 5 68 16 79 19 20 113 22 138 3z m-204 -30 c0 -1 -60 -61
-132 -132 l-133 -130 130 133 c120 123 135 137 135 129z m-300 -156 c5 -11 10
-49 10 -85 l0 -66 85 0 85 0 0 73 c0 43 5 78 12 85 7 7 39 12 73 12 34 0 66
-5 73 -12 7 -7 12 -42 12 -85 l0 -73 74 0 c102 0 106 -6 106 -167 0 -67 -4
-133 -10 -147 -9 -24 -14 -26 -78 -26 -40 0 -73 5 -80 12 -7 7 -12 42 -12 85
l0 73 -85 0 -85 0 0 -74 c0 -56 -4 -77 -17 -87 -21 -18 -127 -19 -145 -1 -7 7
-14 45 -16 87 l-4 75 -68 0 c-90 0 -100 10 -100 101 l0 69 -69 0 c-86 0 -101
12 -101 81 0 90 -2 89 175 89 142 0 155 -2 165 -19z m-176 -343 c20 -27 21
-108 3 -132 -20 -27 -108 -34 -142 -12 -22 15 -25 23 -25 76 0 77 13 90 90 90
49 0 61 -4 74 -22z"/>
<path d="M2170 3640 l0 -430 425 0 425 0 0 430 0 430 -425 0 -425 0 0 -430z
m652 231 l33 -29 3 -184 c2 -159 0 -187 -15 -218 -28 -55 -48 -60 -246 -60
-188 0 -224 7 -247 49 -6 12 -10 101 -10 216 l0 197 29 29 29 29 196 0 196 0
32 -29z"/>
<path d="M3540 3640 l0 -430 430 0 430 0 0 430 0 430 -430 0 -430 0 0 -430z
m635 248 c49 -22 55 -50 55 -252 l0 -186 -29 -32 -29 -33 -202 0 -202 0 -29
33 -29 32 0 188 c1 200 5 223 51 248 32 18 376 19 414 2z"/>
<path d="M2170 2268 l0 -428 425 0 425 0 0 431 0 432 -425 -4 -425 -4 0 -427z
m630 249 c50 -25 60 -66 60 -250 0 -185 -9 -224 -56 -246 -16 -7 -94 -11 -215
-11 l-191 0 -29 29 -29 29 0 197 c0 115 4 204 10 215 23 43 55 49 245 49 124
1 188 -3 205 -12z"/>
</g>
</svg>
